<mxfile host="65bd71144e">
    <diagram id="v7UZb0TqCejA986OkopB" name="Page-1">
        <mxGraphModel dx="955" dy="648" grid="1" gridSize="10" guides="1" tooltips="1" connect="1" arrows="1" fold="1" page="1" pageScale="1" pageWidth="827" pageHeight="1169" math="0" shadow="0">
            <root>
                <mxCell id="0"/>
                <mxCell id="1" parent="0"/>
                <mxCell id="17" value="DIAGRAMA N-TIER E IMPLEMENTACION" style="swimlane;childLayout=stackLayout;resizeParent=1;resizeParentMax=0;horizontal=1;startSize=20;horizontalStack=0;html=1;" vertex="1" parent="1">
                    <mxGeometry x="20" y="60" width="480" height="380" as="geometry"/>
                </mxCell>
                <mxCell id="18" value="USER INTERFAZ&amp;nbsp;" style="swimlane;startSize=20;horizontal=0;html=1;" vertex="1" parent="17">
                    <mxGeometry y="20" width="480" height="120" as="geometry"/>
                </mxCell>
                <mxCell id="21" value="UI-COMPONENT" style="rounded=1;whiteSpace=wrap;html=1;" vertex="1" parent="18">
                    <mxGeometry x="40" y="10" width="120" height="60" as="geometry"/>
                </mxCell>
                <mxCell id="22" value="lrLogin" style="rounded=1;whiteSpace=wrap;html=1;" vertex="1" parent="18">
                    <mxGeometry x="180" y="10" width="120" height="60" as="geometry"/>
                </mxCell>
                <mxCell id="23" value="lrFormularioCoordenada" style="rounded=1;whiteSpace=wrap;html=1;" vertex="1" parent="18">
                    <mxGeometry x="310" y="10" width="150" height="60" as="geometry"/>
                </mxCell>
                <mxCell id="19" value="BUSINESS" style="swimlane;startSize=20;horizontal=0;html=1;" vertex="1" parent="17">
                    <mxGeometry y="140" width="480" height="120" as="geometry"/>
                </mxCell>
                <mxCell id="25" value="INCOME ENTITIES" style="rounded=1;whiteSpace=wrap;html=1;" vertex="1" parent="19">
                    <mxGeometry x="170" y="20" width="120" height="60" as="geometry"/>
                </mxCell>
                <mxCell id="20" value="DATA" style="swimlane;startSize=20;horizontal=0;html=1;" vertex="1" parent="17">
                    <mxGeometry y="260" width="480" height="120" as="geometry"/>
                </mxCell>
                <mxCell id="24" value="DATA ACCESS&lt;br&gt;SQLITE" style="rounded=1;whiteSpace=wrap;html=1;" vertex="1" parent="20">
                    <mxGeometry x="50" y="30" width="120" height="60" as="geometry"/>
                </mxCell>
                <mxCell id="28" value="DATA HELPER" style="rounded=1;whiteSpace=wrap;html=1;" vertex="1" parent="20">
                    <mxGeometry x="180" y="30" width="120" height="60" as="geometry"/>
                </mxCell>
                <mxCell id="29" value="SERVICE AGENT" style="rounded=1;whiteSpace=wrap;html=1;" vertex="1" parent="20">
                    <mxGeometry x="310" y="30" width="120" height="60" as="geometry"/>
                </mxCell>
                <mxCell id="30" value="DATA&amp;nbsp; SOURCES" style="rounded=1;whiteSpace=wrap;html=1;" vertex="1" parent="1">
                    <mxGeometry x="20" y="460" width="200" height="40" as="geometry"/>
                </mxCell>
                <mxCell id="31" value="" style="shape=image;verticalLabelPosition=bottom;labelBackgroundColor=default;verticalAlign=top;aspect=fixed;imageAspect=0;image=data:image/png,iVBORw0KGgoAAAANSUhEUgAAAKsAAABfCAYAAACX6zcWAAAAAXNSR0IArs4c6QAAAARnQU1BAACxjwv8YQUAAAAJcEhZcwAADsMAAA7DAcdvqGQAAE5ASURBVHhe7b0HuF5HdS78fr2cXqTT1GVLtmTZkiwXLPcONpBACLnGgXDzUwKk/CEF+LmUn9zAk3tDkhuSwM0Fm4ApIeBgG+KOi6xiy1azbPVyem9f7/d913zf0bFw4BzHRwfyaJ0z35699+wpa95Zs9bM7NmeEgln6ReKKlXi8XjMr+PpNL3aXu3+dPpZcVTSEJ2envyV81d7/kzTWbD+glIFJJXqme4XTQfUdCCdes6dT7s1dU1k13U+AwyensZ80Vmw/pLQKRCyugQcqzZJPHe/QlaZ5SA/j1zNn4r33wPkz7p3JuksWH8BaTo4KtVT4vl0uPy7lcYbxSKQzeXs1Of1wuvzgYep5/Ws/OUUXpFWBbiiXwSATqezYP0FpQpwRIVCAelsHkWrKg8SiTji8bhdr9Sewlawlc3mkEwm7b6PQA0FgwjIBQJ2rrjl/ASw3+dFJBIx5xWiSToq7C81WItshVacUrkQPLARG7nrZVcp41RZTynqxl0LU/YrjM5FlXvTqRLGfpRK+dwYWQlcvu71oOAu2BVPOXPKbsmjsMo/jyW7a08Xed2nQGU6VR49VD5RUrMgPfbKRyoRVWj63VOhK6HiiRTGRseQTqWNb6lUCmlKygrbR0dGMDQ0hFw+bw+RuxaDWGVnxRKla9FcoVgw8Hk9XlRXVyMajSLP52LxGPLZLILBAGpra1HDe8EyqGtqatBQX48wARzw+xEKhfhcWJG/gl5ZRqV/qoHNBc0YrApUYFX6dVJUhuhY5wKHzryVWuaJ4UtHnasAJd5UIDJOF1MDAxjo7kGS0iGfyyKdSCKfziA+No50jBKDkqGYp9Qo/wXI0EAgSKaFEaiKIFxXi2htDfs4HyJk/sLWDtS2tABVVVahBS+lhhJU5pheiWjMe5T7HILKYom/BKzCZghWqwZllueu86TEofNYOUnC9iyoHNU0qrQa/osfXtc8SuSLgJXN5TE5GUMimcIwgZhIZQjIUeTIB7/PTwlZQiJDvpB/eYbNEbgCnMBoUpD88ZMXSlXx+8h8LyWmhwB1Ete5SDhsYC3wuYnxcWsECi8JnCVwHfjJb0pVOYFXAF+woBmNjQ1YsHAB6mrrCHzGFQkzTZZShXU/lsZc0izVAMlWZaisP6kOyGxyh54Scqz4imTTFW++iADDjPcPoO/YUWQmxtHz8kvo3b8fqd4+lNi6A1kPwUqmEZzJiUlkUkkClRVRcBUsBvj81LkCPAnm4SPDQ9U1CNXUEoRBnlch2rwQzcuXY9F556Nj1UpULW9GuKkBgRABbfDk81N8ZA5ZwXkBR5XIK35xoMyFIoEpr8Gpco2BFG4qip9DeuyVYVmWclxEqh0KZHs2k8PQ4CB6enowOjYGHwESiyUsaImJFsiHBLvzifFJpDIp5At5A5aoSL4L7AKrn9JPwKpiYzUQ8dxPnqnLl/OyceiczDx1TcCyhBQP640AzhGwagR5ppFJp5FKp6zRSKXwU2eQYFi2dClWr16N1pYFqKf0DQVDlL5s+IxDdVU5zgXNDqwC5rSu1qcnhSn1t5RmlF9WeMRT6N67Hz0vHcLxF/Zg6NhxTBCwORY+PjSGUiyF6hK7F0YU8lE3UhRyisIKq2ScNCiVuzPrwL1+ZoESVwEFKh4zhRxSXkqcCPWxhhpUL2xEoC6K9nNWIti4ABuuvBbLzl+LQEcbcetBytLyGhh9LI+H5TF1QWkrE2WwWl5EvMZS6bK5mVAlKkc6ozPe+QxsAs/I6DiOHj1qQC3wXrS6ynTSCTbY/oFBAiRlki+byRqoc4XsFNA8BKjxi/xxxpOToEGCPRQK2lHde5BA0rnfTx6znD6m66PErTzj1zmP8vsIcPkNyHSWc/J9nBI4Th1Zx76+PowMD6OWPdt5q1fh8ssuQ8vChaYm1DD/ItXdXNHMwapQqlTWWIEZ0ql1POridYMtvzA8giPP7cKhLdvw8lNbkRudRG54HIVYEiFKFDEhQOehFA2wDw4ysjSfLZFJZiyU4y0yTquMspO+BY+PIQP0s4tncjQTKBEJNj5AeYOsgMuungoEsgSvhzpWmtKkfvESNC5bgotvuRHnXfMGhJZ2oMRKDPrCTnVRIZSonBIT6ahzEf15nggeMwcr81X2vyIieoXZnp4+HDp8BGPjE6YjKsQQQdBH9Wh0bBQZgdOseXbpBJTkv8AmPhhQiQiBTt28AY1+S8GuS2rCdE3XnQuslLwCLe/JXwGkwKlr1nNZXEyjDGjFrbACn/yS8pOTk9SVB9HV1WUSv621Fddfdx2WLllk6oLUDJ/1snNDs5SsdMyLukXnJTMp6ajw4CQB+m9f/hqOPL0dwfEYank56GFhieyA+nCWOsew6XyagGJFUBJnixnEdJ3xqUs2LbXsV7aYuTJIeJH1oXSJQwTpyBZUE7w0ARCi388APgJaLleiTkck5ij648UsXR6exlpEli3CtXe8E9feeSfYhxGojJT/0xnAJE5dsBMpDg58lo8ZEM2bnwpZYsEEprGxCby4/2WTnuFwlG3Qhxd27cLJrk7rfisPVqSlQOQA6KSd/A6cik9FEPAcuAxsCs/b9izjOOWcKiB1QU5AdOCkszh5X+kwrKSsejaFUSJKw1++ns/T0CN/+vv68fSWp3HFGy4nYK+lUVaNZqpeM+PQa6PZgVUhmRsdJD2K7JpGDx/DM9/9AQ786BGkXzqKUCKNqC9EncxDwBCQHnZfEepQNIyonsJDy3PBqnMRaW1BXXs7fNEIqtmt+NltVdEKDVPvqm1oMLAKHJPsftLsDpOxCUrkFIrZPJK0lEcpnQZOHEesbwB5Gmb+ZAYlph1g11WVojFGEMvoz/hyBrYcRVpWFdnchOW3XotrP/CbWLB+LTzUeQkRa3wql2BgOqyozHmVVSQJNzNSbKeTGqAHw8z78zt3YZxSSlL26NHjOHmyE0mqSH6CSEmcDjSl6kBYPuf9iqS1MBWw2nO6XpG8Lh4Lb9ccKHXNHQnIACWwSVAXj0lbA7LO1Uh0zufK507iBij588z3CbS3teKiC9ehivXYsqCJ911p54JmDFYFUqUa43jmobRKdvfi7k/+GQ788GE0T2bRxC6nSGmWLqQxnksgWxNFvrke5111BRatWYsV1B3P4TFAwLAZo+QnE4UolVCOzGMtSKyUU+Q5wWdejSSoz1cNS/WQFKLLEcz91ImP7duPg7v24OSBQyjsO4HaDO9TCtQEwyjlqHZQuks6xdjAjnsTOO/2q/Gbn/oT1K9Zj1I4SFlvg1o2CmC6uEiFNfqpCz+HTgergOqOQzRYnt6yFQOUrNFoFU52dqGXumA6k0GeZfRJv1RIgaPsrDvm85XzKfDpvAw6xe2AKsA5/5S0pWRUGSrPVo4CtO5V4q2A2Ywxks/npK+OAYU1Sau6cdeiNOYkTcPUWesoWTvaW+w5VeVc0GsDa5FGTX8/nvz6d7D9y99AVc8YGtnd04bHIDLINVN6rjsPF1yzGRffdhOqFrejxJbnCYTICOpoZJD0VJlN0j8t9koJeVSOlJ4uyU9+uQvuqjxGMrCU/VKWagUNkVKKacfiOP7ss9h27/048tQOREYSaPVXw5+h5cxns0x1JJjBSCCNc26+Cm/59GfRvnY1Cqwgmj425GW2otJ2B5cJ85xK+2eTZXYaObVGBZJh9cy27Xj55QM0hKg7U3/OEKgDQ0MmXfMFGpRyZgs4gOp5pezASUfATIGZcTrJ6kBoUrUCVPpNAvN6BbinAFy59urOgVlN14Hcz2cCBKUak5fXNYRlY6/MZzIewzkrlmM51ay5JN9nSGX/zyQxy6xmerzMYOdzz+Phv/sq8PJJtNNUqqJVP+nJo6sUx4Zffyf+n7vuwvIrNyPc3gpvbTU87Oa97HJUeDHCnOqUeiy9LoEySVd1l/RnHl10TpVujqdkYEHxSPIwfl9VFIG6GjRdeC7WXnWZAaT7xYPwx1Oool4bpJMxJikRLJTQc7Ib0XNX4Jy158Mb9JuuPAUN/jMJo6k8uJ8ZkMJNd8qyK7finKTFf6LzpI2rJti4BFbpfPV1dTY4L0kakDSjgWQGkDkn+RSHorSYVXY5A6FzBjSBsXKvDGwX3t2jp3xfoCQ42eMorItVwsEZdWoUChtkj6nwyk+VDKlI1Dq4dDpt4aUDL2RvWT3HIwKqmxmTdUXiNlv+yPFO9O5+EfUqLLuvGLv+GG/mCNqOi84D6ghM6qrkPGuK3UkpSLDbYCnP2c3I4BBzWAElMXAKGmwRU3zjNR41pKPhI+uqyXhynE43nH4pGe14zQsWdQjhhoW49lfejEJjmI0oiYw3jRT/iiaZgojkwogkfTix50VQpFFl0IQHASULbxpVcvUfJQFGcYVpMUfYy2iAX9AtFHKs9CT6entw4vhxGxqSESPrvSoapQSrRRN1+Drq9bW1NQRE1CRaOMIyRqibU4Vxw1QCN22DAIEtHZN+dds+npuqwGseWepklIqoXs3sDg0NavRFYKTUFCDVKDTRoHj4gOW/jg2pimDMa+w3QRUvx9rwSk1gWD6jcFYFFnpuaFZgLYsdOo13AlECtEgTPeejrkqdMJzzoqMQxNHHnsKLD/4YxdF+1jaB4M3S2GI3TQvdgco5WfcChwGEAJRkK/Iop+ExDZxLIqlV+xkmIOyWpbs9z4MxnQyXNLZM0fmKKfQ8vwMP/uPXgN5RREohxqO5bkoI6jJe6rB+6sulEpWCMRpo0odpFFojUgKKn6TiehXvVKZnSHzkdLKnGZeqP8D4IpRWds3i5kHSj96J8TH0E7hHDx3EwZdfxJFDB5CIT2JR20KsXL4E7TRMG+vrUUXpphkMTR6YWk/d38d68HpDdKwP3lOx8nk1CPKSrT2X1cB/Adl0AalkDkmqTYlUGkmqULl8gXwgeMVC5kfHPHufDO+NsScYsfHWlMXlZf1rZq0iyW0NAhuFqlFurmjGaoARK1IdtOqze/duHL7/AdR4qmm8BG12JRII8x5VgZMn0XnoMMbZzRbYzQVYSVEaOh7pQKp8EaWpfKYKlMmGrKwKLRUDqXVP5WdsIYcxg/eZCVaTgVTjtqwVJE924dBzO7HvRw/i8a9+Ey/e/yhqE3k0BWvgMSYLKo6KbDjxUgb15y3ChW+6Df4azXaRrDU4KeiSUprlvOp8pnRa4EqjU94L7JkGBwcxMTlpFW1z+FNHN7Ei6arzZDJhEvaqK6/A0qVL7J7WDIyMjqHzZCdGaLBpvFaqheLT4P3Y2CjGx8bNr+sx1kE8nqBETBKkaQOgFruksxlkmY7SLpCHGtvN6HomzfTJMOZXXXy0qsqkswDqRghkhEmqOl1Ws1saFZCEVwlnxadZ0IwNLEcCKyUAu8ztd92NH37gw2j3tNgwkYeoUyWwx0ee/sl8GnFfEdFl7Wg6dzkaly1G0+IONC5qRxv1xPr2NkQXLmAO3BgsS874y2CcyhJPDKzy8oeG3dR5PI5DL+xCYmQcE739GKPrOXac7iRiB0+gNlVEPSVlM6Wp4hO0pbXq0QIBmWfeeouTWPwrV+I9X/p7hFrblCDjZyUxpCWpc4mtchdu5zOhVwk8pbMa2DJ47CdP4IVduw0cDiSUbjoSKFoTID3WgTWJJUuW4B2//jYsWbwEJ06cRFdXD47xuG/fi0ilM0zOdcHGG5LprTrl0Sx56cDSf+l01BSpwKZuXkOGWpUlIJ4K5zc9VWEq4UIMF+BzLr7yWC1VqhAlalVVGGtppAbpt3QtF68//YfB2uFtRaCgVsduR90RJVaAeliAIeM0ZsapbSaoWOaoU1G8ItrUiOiCRvhqo4g0sDurrzOG1VAnk2Q1XY1KvHUnzFmRrT5NQyRHl56IEa+UOKxMgXSkq9ckd2ZkEvnJBALs8jQrpqncKuZAOijlgKYgzFeSZKV+ViDwc2WwLvmVzWcErNNJM1RPPPkUdjz73KuDNZdHlmCVXpinqyef7rzjnVh5zkqcYO/R2dlF0HZh794XESeYnYElNULdsoDLP7MDnFFWAZ6AaIuCqJsKuAKhXeP9gPy6LoDymqZs7RmB0sIJpHpOYbWoiOoGk6ii7tzcXG8jAZKwLvW5of8wWNtKC1Dto3Wo7ovk06IG68oKKLGAKUpD6aYyomzpGv0Z3stQoSoSO1kf5QKf0bCIFH5nCDiwmBXMoufZxRe0npOVXGDl+aTfspJD1J2iYiBB6qN+JaAG2fJLBVaSKopp5li8PNOUDsZqgI/nKkXGX0DPGQarWC1AZVmW7TuexZat26xrPh2stgKqDGJ10Vpr+l/+y69h3QUX4PiJEwQrjbETndj34n7TOZWcEqzokEpaUlUkSSiwOmBqTavTNyuSVoaYgCkg6qhZKjun05CYVrqpe9dohAO1wCuDzknWKhp5S5a0Y+GCJt5zhZ4ruM7OwHoVUovWuKCWpREKNoesbkm2dZFWUoiGTaQYQDTnR03ejzoeFxRCaEcErfkg2rMhtCYDaBovonkCaBgtonYwS5dBtDeBCF3tUBYNEwU0pzxozQWxIOtHmyeKZoQtzijTiNKwIPvLg8FeynMPG4VmraieSARI8lBcu7Y/P+TUAA2QUPJTDxQopkg3jHPuz4jh1VA1RCS1oDI+6gbq2YwVn6yo8rOO1OTd0R3UNF0jmYISn9e5Ltj1suOPO7pglJyEB+OWOlK+alQJYwc6TQoYi+3q3NGswWosYK6MPZY7+nRuNyR3VUBFSz22SCWczkfnp/449Ue/n9dClIXVxRBqiwRdIYzqfAg1BGMtwVzH87pipHyP1+mqi1QRSnyGTg0gpHjL8cuSL1LSFuSYhyI5KVNJWZQRpiE3mVdORjpy+T+zpApWxUq6SepVgCIQSvJWoGbkmFqWtFm7r4kBxWEAVEQiheO/ztR7uWvu4BBUOSExLFO053+KyukZTfNOAbhMU51xOT/WcOwBxT139Jola6WiXbZ1IufkVkV+nfILIpoh8iFHvTHnLTv6K8VzTzun6U6BS052lZxXUpGArDgf9VLnXAOYfk9hFYeGuoJEbIDCRyu0HFCdq/jmizTWKr3PAEqn9aTKkEmzMlWAnKd0TbG7l4VuklXlZTgXtsL7n0evX4ktRUVFj43JsqdwgOZFSvK5otcMVpEreqVNnXJ6VUSu8uc6Iv05cuAjgEz0FRlWS03Uf7/SaR1WxRUZLsfc5uXIF7npoRVVxYmUK4GzUp1KW+GkWSs/dr8iIc4QTUkkZqixsdEG+g2QBKCklCRlZYC+AuIKJZIJA22lyqZUATtzZByefuGnSPG9XmV2qoFm2MJhje26fDHz7jgHVE7htZEV3TJH5vJwihUqyCvBZp1yeWxU07U+OYZ2kFIXrvWqp5zrtE85LXgRuMzpKVUqQ7rOvuw0RmrgVwOZumoTDAJ3ji1EGrXyWlEN5os0I1RfXl0mPd9AW/4TOUlVJnpjsZipAw7cdOTXlGRlOSy0Hac9N5ekZKlyOOOL59Ma1lzRrME6nRXOL8C9MqO6/kog6b4DmhZrv/KeA2uJ3beOBszy0WWP+qeFkRrAqqg4+6ukVXaqLDrlpyhg8kRAraSvhS96P0tHKSdTq6vOMKleNYMmC7qxod4tUKHTOLVKovybPkpgKqxmqRIJGllZgZo5pwqle/S4+Kzw5fDlGERW9Glkky500udd32IP2r1Tz7ij+3XnatjGb16sODX0MIFap3fhyiGtziwzc0OvUbKqKOWiWkEc2bl+ZWARfCYty87Bw/2JqRrCyrNC9B6RJhQ0IyUuSK46MDuJzCok4ApOBaC1f7or0LlZfRpZZacF4SVPHlme6p2qIBkYYj79TEtAFSREZgzOBVUYchqdkpaOZ1phrzFKNVqNJ58yssgBO5KMd36kMwWk0uwXvAGWgQ1a4swnDond7mggpDOAWSktBsOPu+IavsIVVC/GNwcwV4+OM/TSz/ric2ozEhW6pVE9H8P6qF/7mN+66ggapMrwGRuetLR0Njc0J7Wl7JpzvHKlKJOx0pUd+WIeOcSQKo4jXprAJN04JjHhiWPCm0DMk0ICKSR5THrjSHvHzCV9Y0iUXZwuRjc5zSWRtvFJ5ArIaqEIYS2t2MtuS66kSlaFlStnvkgGVn1DE6qqa5k7V8n2EiAbm9QcOzKXWiuWiY+hlI0jgCyCPA/QBYkemqlshGy25nQukJuixNhcnKoHAdhBNU/A6ZmsxT1d2Fh4SW42BImKPNkjp0mVfMiHbNCDtK+I0UwcsWIKgeqQJAFjlS6tUNZ06OaG5ki0/DRVGKKiiJ0ycrSGv5dgPOZN4aAvgSPBFA75k3QJHPYlcdSbxDFPEifoThK2Jwhic3DH43TH5AhkuaNld9AXx0veGI7wOOpXgxC5ijCfAMsadNMY80dJWvg+fxDVNbU2d68XBGU4iUO29oF59Jb1/GQyTp01w3M2d/VICkN1wIwxhjBH5gqS+coQnklPp1458IokRSUyWPnlxmCgZUirGfU+AjCDm25MaW9j6Xn2cLk8ujq7cODAIeZDi9n95GVlvMfEkLm5IjYsFXGmJIgxW5RaW++6G/d94CNoLy1EBGHLpI/df6WTdSynM49+XHeiu7Ls1W0kihl0VRfwqx9+L0KN7E4IIr+xTlwvIUCFUyMGBTJOlSOjzDLLZyuZVtSVdCrXPIEAUqyI0dFRbLnnPtR0T6LZE4afTLeKoJOK0FOMY+lczGD9HKqwvG9gCLv37bcXCPfs2mMLUPTCXaGQRS6fNcMrnysik8mjoaEad955JxYsWIjO7m4cO34Chw4dRld3D/PFnFUaoi9A3pKLAjUvS7VwM1KatdKUqQ+h8oxW0Gar6DStyqOP171aIK81AJoZZF50X3bGZGwS/f1DOHmiE+1tHXjLm2/DyhVL0NbSjFBQdsY0Dr1ejDqN5h6sU2cOrNJp1ClLl4wX0uhtCeOzX/97bNm5A0d274VXmzgoHT4ioKoLE1gVh08IL9P0TJfbwhRl2RhufNfbsPYNl+CJ79yHhz7/ZURHk2jyRmzdgMZf07QQOimh52S69eeQNRjyYXhkDE88tQUTE3Hb5GL//v20+ieRK+aowVA/VdmZnQzVmfraCN71rjvQynzq9e1jx07g8GGCtbPTeFSRyFoVJU67tQL08bwyzVqZ+9dUqaZVK1OsAqSu+3SdYBVoTWIzH+MjQ+jr6UJsfASJpCYmfHjb238Nmy65BDU1UXuVJUwVwUj5YJqvF59OpzkDq+hUxK7b0RVdk6UuQEqyDiwM4ZP/8D9xzzf+CQcfego1Bd6j/lWgZPRT0tqT1u3REZUVRthRkYlBAhNBpaJIomhvgJYLz8f1730n2tefj8nuQfz4y99A/5bdWIYo80vpzQbQx5Ctb30D3vt3X0awtVUxMuK5B2uFZP1/719+gNGxCYQjVegmCI8eO454KoE0u11JSHiDyOZLqIn68MZbb7EVWEODQ/Y69FED60nyQLooc80fD/kWYEYr6oFeQbHFKJKYBKFbwOLWBRQDVQRoxJb5afG2jDmpJvGEVJIEipkk4hOjSMXHqSPnGH8A5523Bre96XZEIiEsXNhMI7GDz2oYTeBmihqpIFVgdcqo/I/T7NazlqtM3WjX7t04+MCPUVNe36QsEcblMKfTKZCJJCAF+xyZPF7tx1VvfiNe3rMP+aO9aCjQQmVFSTKEyGAVVq9XixkCpRaxyGmM0fndEJReFfbLz5QUfmJoBIf3voQMu9MN127Gqo0XomuwHyMDA6aLCYAT+STq1yzH+ttug6+62mVOYsqqXrkmiellhk8vw+tBkoZHjhxBL9UAlae6psaAlGeaNIPYqAOsIYIsVIWcL4yBiSQOnuhlOcYxmixQ1QmgFKqmodMIhKvhi9bDH61l+CittyqUgnS87wnXwst7iNTBV9UAD/3FYDWyAerKefIhW8RwLI3+0RiGxuMYiyUp6bUGNmaqiC18YZzLV67CG664CnV19cwv0NhQi/q66jK3RKxnlsN8ZZ6JXi/Azotk1VinXi7UO/1dbRF88itfxPe+ejdGH3oW0VwJQ94MfO1NiDbUIc3u0KZPGYF7+hQpTjFSwz561ULz52JMnsaKN5mBh7peqLkRCzdfhF97/29ZPA/+4zdx/Jnn4Y2lkKYEX3HbZvzW3/3DGVUDKiTWP/XU09i+4zlk0tRLm5qpb/sxOjGJAUrbWCqHZLqAPLuBTDBKnpGPlFxeAlq6pbpzLanUqy/RSAS1tdWIUkLWhtXdBy3f2idLb1zkaNanyZ9k0knOWDyOiZg7ZtPasonmLg04j9SPPPmfTyPqzVNlylJSF7Bk+QpsXL8eCxoaEWRlVEeDWLyoldK10VZuOZ5Na+Rlej0l7JyAtRLhlC5JjyvG6WpAFt0tEXyCYP3nu76OsYd2GjgiF6/G7R/9IJZsuABJPhCihNHbAD5KPYub8U6loeyrUgQqUi6XRf+unfjWp7+Aqp44ohmCP1xC9boVuPY3fgVLVyzHs//2GHb86BGMDw1hw63X4L1//+VpYNUYgcYfy0yfS7DSacnfY489gZ7uXreMkQCsqq1Blt3PRCKNEUq6QsGHSerbKbYjG3ySlS+pS9BKv5RBpHe7tOmaFkDrlRkt5ZO+WmDvpcas5YZavSWntwUSqRSKOYI0yyN7H1+RIM0RrARqmOCsIh+C+QQ6mmtxweoVaGhstEkAthyEbcF1CIuXLkJNfT0CVGEQirAhhVgi9W5zQ3OmBkwB1eiVaoDuOTUgj1hNHte8+Toc2LML6SPUv4oFBFe24rK3vQkN561ixbELo1If8oepe1G/IlP8PPp49NIhxEqqa0BkwQKE2eqr2EXlaQzsf+RJRAYTqC3S6mXFj3f14eXn9yBTHcSt7/51e6Xj2IGDWLRiKdWA29k9nnk1QBQMR0xP1R5X6VSSRkwcsclxWugBe9O1RksJtTqL+n3UX7Kx1RAbu8kxGpIaO83l0m4fsbh7hWVoZJzG2yiGhocwzAY5ouPwICbJlyTDSJKWKDmRp3ZPp3Fbf0EgzaOOArkuUMTyBTXYdN5irFu6EAu8KTQOH0Vw8ATCoz3wDXfBSzfReRTZkQHkaRR6MwRxMGwNxCYmXqeufzrNqWQVGWhPl6wEhNSARCmD3hYfPvG/v4jv3vUNjDy0A14aHTVXb8I7PvcJtG/ahP6TJ/DoP30L6c5uhNmlaTlgwVs0VUID+1rAvfH2t2LjbW9WT4Qs1YjBrU/gax/5E0QPDaCeUkkw04LvpN+DscYA1tyyGZfffA32vvwySv4o3vj7H0akgV1wpYUpk/LSaZjtFHTL918nEueV5L98714cPHgIKa1bZSOS9NP+ATKIolU1ZiB5CAQfJWg6Q9WA6k2G97WPR8kXoF5OwPKc7CFXKU095Xeh+KPqtdkxFYo84I/T7QmqMOvBx25fr6b7g9SZ6VY216DFl0FdMYZiYoxdVQYRpqFX7e3tAPYypmoVqDYwbqkWqUyWQqUeS5YtR+PK1QgtWo5iVT30JrLyoQkOrdkwIUCMiGS3ON/MaU4kq37ljMzzSsmqE8E2iwLiVTSw3vIm7Nu9F6ljvWzhJQQ6WrDmxutRu3gJ+g4ewX1/+dfo/smTGN67F317D6L3xT10e9G/bz9O7HoeLavOw3lXbmZpKGeYxWTXSex64GH4R6gGEA16M5ZmCoJkVDGVxZH9+zE4MoSbfvUtWLluI2qoe7HGnCXrtIkp0gIY02Ct6K8oxX+YFJ0E+YnjJ9Hb12/7o2q/KwEsT38qmcD42Ait/z57+a+hrgbtrRQObHR6yz1EAEjSRpntIIHoK1C/LOXoz7I3ScNPqRkopE1i6lrEW6Dk9KAhGsDC2jBaaqNYWFeFtqY6tDfVoqM6gHY/wTtCyTnSi2A2jQZK9rqaBrQtWYXGlkWob26la6NrYUOqJV8oiJjn9OQYBjuPYai/j70Fe7vaBhp4Yatrm043HgqeulBmp3Fh5jRbcL/uRAFpZJnnj8ZWtRWjwKxZpgCty7qcB/VZVhCza1Y/HTUkVDOstlXQdCQtAkZAwwBpOr36UrApSNs4zuS4zJMSaj1+tOWDGHl6L37wub/B7kceR7q/33aZybJCM8KrE8bmpprZ6wxUo3LZQ1RltNROEktANacb5XOt1E9MjFG/TKN9YTPaW5pQEwmikElipL8X44P9SE2OopBOGDijhRiqkaIgSaO6lDJ/PUEoV00eRXktlIujVEwgmZ+gROezI93InzyAyYN7kaXKEA7WYtnK9Vi2ehMWn78BVU0tCFbTmAoToMFqeEI1iNQvxOKVa7BizQa0LT8fodpW9Hf1Ys/jD+PotieQGx8g92yim0xl61I3QlLZXgvw5h2syr9AWgGt1quqi1CJ1C2Ha6qw+urLsOjmzWh+47Vov9m51luuw8Jbr8XSN12PmtUrCVY3xaiNMDIEe5aAzvOYI9jTBELGz3s81wYX9f4aNBWimNh3As/cdQ/u/R9/i+PPPEuDgpKNf4L3KzkzB0AllYvMrlVMOKXn6Wi+CnDFH4ZOxSdQHfZjYUMtaqPsKyhFJ4b7MNB9HAOUaoNddNQjx/tOIjbYidhQN+LDvUgwjI7J0QGkx4eQMjeMJHXjXCqBUmoSofiw6aOh2CDaGP/Kc9egddE5iNS1UFUKM3UZa4KeW2FQ0lvJ/pCpHMFIHTqWnotz1lyERS3tSPf24PBTj6J3zw4UEqNWpimygqn7Mi7PiuYdrMp2ucEZyV/WjOlhN1cVxdILz8eFV1+Biy67HJsuuRyXbnoDNm26HBsv5fmlV2BxxzKG9VO4etndkXnsbtT1V+ITLNw8N3XcPOHMeKMBP6JMPNg/iu13fxvf/4u/Rg8NMD91Rs2oG5XzdZpi87qRYZOuoaHBJKvm5UWSpCIDrQIRrEUanpOTE1QPsqaG6aVM00NVHvYecgGqBZoU0FbuqZR03wyNL/YqDGZl8EjVocomp+Ev8quGOn04TsASyNnEOBbQUF29Zi2aWhbaLGOxqBc1mSbTA9OGDW3xGtPVsUQVQPnR2oHqaDVWn3s+lrQvwXhvN/b95BGMHj4Ib47Plctq5Zr2Oxuad7BWqAJYSVg5j03HeOy7A9uprz7+/R/aZmvb/vUB7Lj3ATz7gx/R/Rhbvn8/ul4+TCayggVGMZfMy7Ern/TmMeRNY9iTxmAhjhG6MfpHkcQQu8q0NwsfLekW9vvDu1/G4Wd2wJdIOxDQ6fe1MnamJFy2t7fZ1jwiSVIZMUpT6YuskfG6NrHQBhV661SvkriJEjcGTbTwYS16oZe9iZq7lhJqEzwzrygBtbywSKDaOi42aC+7sCjBHKD+XhwbRnVNHZZQokZrF5KdLL+MWBpSQQ30E5yg38t01DA8ejuZxpVSspdEWRCtdPOHa9CxbDXaWtsxdPgIDjz5NDJUVdRbVnpMOScAZkfzDtbpOqvIJ8zxRNJVLTuv3UdeOo74vsNIvXQA8QMHkTgo/2GkXzyC4T0vITE4yAcpUQjOQqCAhLeImnOXIbB2GXJrFsFz0VJ4L+BxTQewth2F81vgX7cY6bZqZNibyXYO0sL2Eqia4nXMVB4cTKWmzBUJl/X1dWjTjiZla1vTysQm03YVakcCJpFM28cy1IhV2W4TCynYuu2sdOOb5ZcR69zKoutyLJOkAgGs+Hw+ho2NwjvYi3A+g5Wr16KuZTmNvIghK0+DzbbJzzJWtSr5ZQCWnTJpHyphIrqtfOsTI6GGNixcspL2QQiHt+5AHw3aXC7FRlLmKh91zWp2NO9grUjUStYrLVCvd6t70TsTweY6lBqqkK+JoFAVRp4uS3+mjmZWcz081WQuY9A8SpDSZOn6jXjXZz6F933lf+E9d30Jd/7j3+A36X6L/nf/0z/gvV//Ct79D3+DS//rnSi01yMX0nCPGoczB5QZVazIGlPFzREJaOp+NbAvgLk/VT5hJimpI8PkKN3UtTvAEZx0mvsvVSQpn1GFOlnqJKD8MjK1VN0ng1P3dJ3+Enua5EQP8mO9WEAeLu5YSolJMzYXZNsnuAVKNRwNF/KYZ8WoA5PTHmdyhdOclJMcJXhD6yLqr0uQ6B1Cz0v7kaZOTNGj0pZzOXuad7CyfMbkivTSuUkMVRoZFKmvwVt++06857Mfwx2f/QTu/PQncMenPo7f+P8/jnd87uO89jGsu2Yz+UBGTCaBRAahgh/tHcvRtmIVlq9cjaXLV2PJqnVoW7seLRs2ouXiTWil3tu05FwUQ+wama7GbG2RsRNURmKr0ZRnbkjducYwGxtobVPq2d6svKaE9VUWy4AaLv81vGV7ftlzUgfYvZd5d4p0QU4lqxydbCWkWOlav0qTidIuNzmGdDKJ1oXtiGg/MnXxBJVfoyns8n1sID7r/glwnU85Xjc3/ZoWgFM/zacQraq24S2NFe97/nmkBofZg5WzQ3otLJ13sFZouoS1rkeVpDpiMz528BB2PLkFz2/ZgeeoV+7Yth3bt27Ds1u34oVtWzF09ChefvJJ3P2Zz+Kej34c3/zTj+HbH/u4ubs/8Ul8/U8/iXs+82fY9dDD5JUmJBhxWYIFqWuECjLI3DraAvVB8VP5qDBHeavk7/Ume++KedFUqdSBOjp15/amQ5lMupIfFPzIZTL0E3DKP8/d9wUkge1gcVV2YnQS16kMzrkg8hvFU8iOJRAK1qBpQTvxrHg0yD+K8fEBpCZGkJkYRmZyCGkeKy4zMXSa0zXncgzryycooYsI19bZTOOxI0cxePwkSmmJA6bNLKvhzJbmHaxOZ7UfY6F0Vp3adkO8kBqPYdePH8eh+5/A4Xsfxsv3P4yX7n8EB+97mOcP4qUfPICJ/S8hduAAdt97L3bf823s++fvYc8/fxe7v/Nd7L3nO9j37X/G7u99HyP7X0RQr3Q4GUprOGfbdAbzWuTNxCii7P0m+ztFFfk0FyQDSUDTFj/a26q9rd2krNY6OGHKaqXH4EaJm82k7aitewywsq6UWWXfcumGlqacAZfSeuqoMWz5GWOcOvA4pWD1QvgCNTZ+nc/E0dl1GNt3PI1nnniExu1D2EG3nZa93I7HeXyFe5iO982xXnY/Z6DVegOtG1CTS8QSmOwbgicrI9Dl9bVwdd7BKowIsAG2am1GYddYAZW3A/xU4ENU8IOpLKK0PsO5OGpSKdSyu6+m8eWR0UHG63tYoWwaYYapjtPAmvCiNh5kOD+CSVquNKCyWSZU1Nbi7JBoFWdDXmSZVp6VVPRmqX7Q2eC1m4szY4UeaQZzwigDIeuOR216kUq6r3QtaGszUKUL0qMDrHC/rVXVtGVR2wjxur6ToBk3vRZjIGQONSQlngnYLr/0scVrstucysWexLQM+ikGkaSBFQjWEagEK7HkT2Yx0dmP/c/uwe7nXsCeZ1/Ai9t346Vtz9O9gP3bf5bbiaN7jyKXdF/gAfXiQJa5j2WRGBojQ2UcFq0hSmS40s+c5qQOZkPSVQXMLBGRIU5MZ2VFaCcV2wpHc9XXXYymW65A7fVXoeaGqxC96RpEbrkGVTwuu+Vm1J5zPsJU5ts3Xoq6zZcjeM2F8F+3lsc1qLpyLZo3r0PHFRehcfVS00kVrczXSuGtizelme60/l5X55SYnMrc0NRo/qHREUq6GixavgKBaDUbog85fxhJfx0SvhpM5L0EMUFoExzKtsY52Usw/zZOy8LJoPLymjOqNA6bNYNKio4tflFY/lEOGIyln5YoKbIMm6OKIdUkk8sjzQaeYgOfyOYwyWszcSk+7+JgWmYA0uBivnJML6uxWh5tCyRX+lnRvINV2JBThckJHNpP3y2i9tjStPWXXIyrbroOV950Ld112HzL9dh80/W4WteuuQrLly1Da2sLLrv8Mmy8dBMuvuwSbLqc7rJN5i59wyW4lMeORe2sUBkYhlZWsrqi+SOtTpJ00ZiyVt5LkutrfjEaPE0tbWhbtgI11CX9NY0o1iyEp6EDY8UQYgghH4iy4YVQomTVNxXKTY01KhjI8YzlcykoZmnklMyU4gWpBJTC3kg9QpEaCsAEG0AcGYJV6ldtXR0WL1uO5SvOw5JzVqPj3FV0587INXe0IxBmzyXQ5rIosWz63m6UujitQWZNedNwocvlbGju3xSwHKkrmkY8Efu0kGWy2oer3nwrXnphD7JHemyc07+0Dauvvxq1izrQu/9l3Ps//heev/d+HHhmK/Zt24b9z2zDgS1bceDpZ7B3+xZE2lvtFYz7vvIPOLZlO07s3IuTO/fh+PP7cGTXXhzaxbweOISGRYtwzqWXugxQwpzYvQsnn94Ob4wSJQQsuWwDll66GYGQ+x6VK0llxdjckGsujjtaKjg4MkIDR+sUfPBX1bGi66gWBZHxRRCorrPpzRQFVJzdq44ZtnBqSTaMpK3abQhL46hyvgAbAkFJMINxePwheEJR+MLV8Iaq4KfU9E5MoLaURuvKVtTWN1EKs+FoeWJzA9paF6N90VK0L1mKtsXt9Ov857j2Nvv2gVbWZSYSOHzwCMbSGWy89Sa0nr8aXurmtrpNBZ8lY+ddsor0Woq6fX05UPqr1IJ8ea/PSLqIUO8EaobiiI4kUTuURsNgCg1DSVTzvDQ8yRqjPkrLVp/fDI4mERpPI0DDITCRhi+WRon+7Bglh4a2VGQxigzTLn7zSVPNmh6VdiW7fjX4Qr6I0dExjIxOmL7asKCDemw7pVMTkqUgDg8m8PJQHiP+hQgtuhCLL7wG5192AzZceSM2XnUjNlz7Jlx83W3YyOO6zTdi9SVXY/Wmq7Fi42Z0rL0EdUvXwreAKhFdqbEVE8kE4pOTtu+uDM16WvFLli/DueecixUrVmDZ8qVYtXTljNwi9gj6ZkKIunGM+dfH8po6OtBCwHtDYbKeJXVVO2uad7AKnMo71bBTi1hElN55dmOJsBdDkSL6/AW6PAZ8WfTT9fhy6AnkMUYhmOZzUuhTPPbz+gDDDfoKGPIXMezJYcJHXSpI3S/I7pL6EgJ0snxNeZ0/Yi7Mua4aWESppCEfdaFU+pBJJDA2NIzY2BhC7EKbGpuwoJXdbLQWaUrYyUIAyWA9vM3LULV0HRpXXYq2C67Eogs3011JEDvXuvYNaDxnA6Id58PTtAzZ6hbEAg0YDVEPrm2ioVmDwb5hFCbT8OeYF+qeBc3n2xirGzXx5PM/5bShs97gkF/j3FPXaQz7aHfoxcYEDd61F1+M5vZ2FlSGoEprhZ41sUcnKmZM6rzZ9snImb6DZfYKf1QpuuKuucXX+gBF/4IAPv5//grfuuvrGH34WQRYyOhVG/H2L3wa7ZdsQnyoDy9//4fId/VSj5Xc0dCLK7B2H/RQz2q/4WZ7F75ny9PIU3oWCE4pHtrqpsTuXrtd56JRtDC+ZTffYta9hwbEtm9/C49/9gvw9yZYacDm33svrvrIHyNaWyXOWEmUlsLPGU1xv2SvZn/lH7+GWDqHWKZAPdLHrr48K8TuW6+PhMNV1DOreJ35Yzefl+7Jo5/dvDb1FahDVAjtC9jUP01HZX1lyVdN1SYzGaTSWaS1c3guhtbRE2g6+Bw6Inlcv2kzWhua2ZhLSFIQaEjPVnTbJ9rpn8prmXTJrhEV1IN1ri+Ny8gbHB/Fzj37cHJ0FDfdcQcuuv2NKNWQySTjv8KZfj1zchiaZ6rwYDovNN0qGqEOt2vvbjyzdRueeWYHnty2A09se5bHZ/HMlmexbdtzOHayG/2s6C3P7sSzz72ALdu346ntW/E03RbquFu2bsVzO5/DQP+AFZj4VbszMM87VWQFD3r5UZ9Cl4Vvs0eFDPyFFLyZGDKxMYwP9CAx3IsVC2uxYkE16gmocFHvUqVptWcxHEuhd2QC3X0DONHdiyMne3CUvDnW2YvO3gEMDI/ap+FlpddWRVHX1IiajsUILVmBCQLzyIkTiKXibBzMjiQmJby91s26kGFa0qjBNKfP6RdLDK3RBTJVfu13oDcHeilV+ycn0E49dckFa6gnR105K8RnZkvzDtZKty91QLqrmyTgka3OWuB4Et3b9mBk2y7ECNRxAnGSLr51OxI8H9i6BZnOI8j2HUfPzm0YfPppZJ7ehfyT+5B+ci9iz+zB8Nbd6N2xB+lugtVqgo6R6xv+80vMSLnS1OfoW1KLFnfYl1E8NpWZhicbQ4DWeiAzCV9yFNmRLrSEi1hW78eCYBbB1DASfUcw0X0IycETyIz3ITUxhHRsBNnEGArpOEoEs95SDTG+UD6JYHoCgeQIPMlxpNlt5xsXolDXhO7JcRxjg5hMJ8ke9mCUyLaailJZR80mTnca/lNj06orbS2ka9obq3t4GEf7elHV0Yr1112NZuq8WuNhgsJK+9po3sFa6V10VEHkvCxwQFmTwk/1zccuT8q/uo4QwRamXhXQwDh1Wq3dpIBBaZIGVc4NzWhuXa28MO0vS2Cm9JIcBFA+wEQ80l3nmQRSSSXp0OFoBJsu1U4n+pKf1tXmKNmyKGYn4c+MIZgdB7SYOR1DlC07opm41LgtRCkMH0d+4CDSvQcRHzhJ14lJugm6+FAXUiM9NDL7UJwcgC8xSMCOEOhsAOxiClXVCC1ciAztg+NDlMKDA0glM1QBpLaydko+x//TnDa+04dHvPTrS4+lbB79Q4M40t2FPBvcuRdvwKqLN6IUidgiIbVLa5vWm8jNjmZXW6aTKpEiJaB0OkFKg8xsVcxFjk7y0IGukpnKmfRNr/3Z7Amdm1lhwRVC+qX+2L2wiZJLdLwTaKhF84YLUX3pxQhdshGhTesRlLtkvZ3XXf4G1NDSrF60BLUbNiJy6Sa7F7z0It6/CFEyLHrJxajn9eqVy4l8piZdienlyGhNRqhWlL5H23TqE4TKkJFjKqvFfK8/MU3pepag9D4PWltasIkV3FBfZ41RxpbxuJBDKUN9nJIyEx9HiYD1aVdBSlw/paQ/MVR2g/DFB+GPDyFAF+S1cHIYIYYJpkcRkMvQEfjBHMFKqU3kwVffAM+CNiQjNegcm8CJ/kGMJpL2UTfVugGMklTDljICZQfIr4mbLME6Hk+is38IxweHkaupxqrLLsfGa69DqLGRPHdDmwKqA5zqeYrJM6bZGVisxwJbtHSpHV/9J3znQ5/AOUUq9QSeLUaTkl+gws8zDUJrJZNAKmDaIL8yyWjYiVAmFBBHGj0twP/3lS/hO1/7JkYfeYaSNI3aqy/Dr33u02YQlZieJ6G5fKLq1cqnCtWaTt2T0p5jWHanxlyJa5FGAKhfaBmgPnZcGed76p5v4cEvfAF1J8eQrgrjit97Hy7/fz9EvVF7piqn1MkYMUtsTJ49e2dHlYoYI1ge+8lPqKNvte3Z9ZmhpIyidNq+j3XzTTfa+tfe3j6c7OzGSeqnestUU8jOlQUDG4Lt+a/9rLQhBqVdgLzRvlfaLkjrEfTBtgjvRzUxQV4G0tRp4xOIZNNo9PvQQh26saaGhrz71pl4UJGOWaoJmlxIUg3oo20xHksgGwljyfoLsfHqKxFubTH+2W6HlcKJeCIMSHDNhmYXmjmVlS2u1jQ2oZZSQO1O+o0WMGseJcsrOXax2hLd7TKtKT6zZ8tO3XCG+NXH1J3OKHnsoKA27EOaoNNwVJ4Mygqk+lS4Bupp7dLkfaUL8R6ZbYDVfRoOCLPC9PqnnPxhNpOQH8WgD3m1aFOMKU3p1QuKOhUz5WwhzTQnlcQnYatHzhDV1tZi8xVX4GJK2FAwZNa8iRQ6SVt9IlNS2L1RoMsUDAyjb4RpAUmRKkSRAqUkR3/JXkdhI6YeLKNJM3duu3vX14nvkt9gWoG6OoQWLICnoREx8rUrk8LB0RF0jo+je2ISPZN08Ri66LoTCRwc6seR0SFMkreNq1bg4huuxYarrkBYX49kD6ahQokuq95pPNTpbGl2YBWzdPT70U4Lb9UNV2OQtR1jLKpbrXsMMmv6VqsGl/0FN3wkCaf7gmaWYbXdpL7wlydKZGC5LsGFlwt5CUz5dU3SUmqDcqo3WGUhlV1Jjkpt3stKYj7sXPF6KOVtU7Oyo585YmzltZ96BYHXpHGEWYcCrIHVckFSWqe7M0CWto7kR1vrQlx37bW46CKqQOxW3e7gbJfkfSIeZ49sMott1PVa6pKl3ai5u282qK9T06c+yWedXwDlUWFVXrFWDOFzJTZ2+4IOAVuqrUd40SK0rF+PpgsuhKe9nWAMoofSu5dStFtHWv3DfkK9vQ3159HiZy940S034dwrLkeEErVEqSzRpFyqCl8PmnU1qCNn+0T9qnNw6W/8KiIXrcZAqIQJ+9w0mScAapiDYcQatmEC0kPw6FheHUTdUN/H0jesrEcm12xUQEyj0xisugn9a32AeewmgVd2Ap9ckUDWxrYyyeSXK1cZXSVSF4XsmCCfkcGgDQHUI2gEQhMSmjWTUz7UsOT0mFE5mjNBlpTywcRb2HO9+fbbcOMNN1CXXUhgunWuAqvIlhcqPH8EZuXaldwgYq5SeNWGAVrgpDO/hXXnWgklPhSlIlBfXnT+Gqy78kpsuPEGrL/xRqy89FIs2bABbResQ8vatWhfdyGWb9qENVddhU0334z11E8bltMmiEZRpI6aL+dAZHWobEyj005nRLMDq0KrbPTkKN5XXncF3vbxP0Bkw2r0hYoYKKaRIGi1/79VPIErw8uRWj+7nSIBQhegbmvAYWwOrCXiR9KWyoFWChFPtqRMljvVCEOaoio7M6B1JIftG1lsK9IsNTGhRxWzJV12CitguvqjRxXMG7qkmTMZWjpa4yk/NkWvODlDxDQ1qN/c1IybCZZfe/vbsO6Ctbb5Wp7SzQCnMjDPrj0LGg6Udq8SSSXzKnPZa92/AUgqAR1L7CWDIlS3WjvasG7Deqxax7QoISPNC9C8YiVWbSZwr78eF159NTZQ4l9M/wVXXoX289cyDCVpOEKbJUDAO/l9SsFwzkiZUrI8lLMyK5rlQhYmzEK69sz2y1a4YOkiLD5nOfws6MDoMHonRnhPXQ3RI5WAv/pgmo4CkSM+z3i0bGy8toQrb78VL+3eh+SxkwRLHpHlHTiHVryt8aTlm05MIh2ftK3KU/RPd+lkzPmT067rGYZPJcr36JKJCRoqSSQmR2hVJ2yQ/cALO9G79Tla2Bmkqdsuu/wSkxYB6sHKq6SPiVpJ6zKjzwRZUo5FJj1lGHW0d9gn3HWsrauxQDK44rEYJib0irZkmQBJRwRXRhmk1+pbq1qqZxsGy/GaDC990dpDXaipqQGrV5+LC9acj9WrzrUVbGEaYFN50S+7dQ9VAV8kYgP8HqoLsvJdRnUoS/myU+rioQkUHg2d5ZvyulP3zExpdqMBIomdClmT4YV8AdneXpzYtQfPP/EUjm7Zivjh4/Ams4jmPKjz0OrUKiK1OhbKYMxjrJDEQIsPn/z7v8X37/o2hh/ZAk8ugXh9LerOXYVITb3poyqaRpxsSGsa/fsFFUd018kaO9UfSyqbRNnWh5EHj3ei1DmIGuq1YzUhXPd7H8D1H/4d+BsaxBmGYnqMx76mbbHNH2nrSgFXXxkcGRvF2NiYbSjc3d2D3Xt2207YyrE2Cc4yjLa89MoKJ2i15LKKhqd9dJiAa2T52jva0Vhfjfa2FiyifqqlmNXV1cRkGXTTUKHhKX00RFThgR1/HnKm37dI3aWKOyW8ZkazBCuDCgSV1Myr/pheW3yRR3pwGP2HDuDwzufw8vadOP7cXmA0jii76yAZrrnjgIweHvW1lpHWED79t1/Cv9x9D3oeeRrBYgopduIZqQrURTNe9266rT01Dv00TWesSN2ay6bJGvpdG1ZRJQj0DpO9u8QoAzS2NHQzXhvGDb/7Adz4wQ/QEm6gMNWT6iI9NiIhxs6Wua836b00AVb6rF4c1NSpvqItyRpPJBGnLqvVWmM8Hx+fgD6hGWYvIXDq7dnKVw0F2FA4SOkZRBV7L/eFwEq9Oh45OsVwsynKJO/U6Wm8fwVV7lUCl4+nX54pzRKsEqvlrFrBnFdXBQ5Bw+q4mEUhFUduPIaBQ0dxct9LGOvqQfehw+jUe/+DI/DlNPddQmJhFT73pb/H977+LRx55HEES2kUKY39BTKU8EgEBBWCj2GhPUlfhX4arG6SQiB1OT6VX409unnu8iWCtpTLIdfSgBt/53144wd/B4H6BtOhBVZpXznmQNJ4PsFaWXlvewPQGBJgVSx16RVSTaYzGZO+eYLZ7ezisTdg1TgFShlpFvAUIhWNu+ROT9FpF5yG7y6euqVr/w5VblngaZG94vrMadZglckjiaU/02oMRC5V8cZYpxh1ScdCDmkCN0t9McNjgTpWrK8fE1196D18DMdH+nHnBz6Endufw8C+fQRlnCDWnqrUsyisJyNZRlWkRGZFaSTgNHq18krXdEBVF86cMh9uIoCNSef0ivGalvUxEYG10FiHFddchY233o5wpEZP8hkWyOqbMFVCr5bYGaSfqioWROVwjdHdE5gVTkdR5ZlTWVeBxBAdTuOnRTMtHvOVnxUvRBavi82BtxLK0fRn5F55V02fVHnsVDubEc1aZ50e2GX5NHq12KZEH49CtJIUyHW0SMoxSVxMWf28pqOJajkdXjXFn0M/5xm7zfjV4DSxIKNh6hleV9Lliv/PQWVeGv1ylWvWYD1LZ2m+6IyCVUlVuqefRWey/fxUd/mfSor+56KzkvUs/dLQvIP11ZI/k9Ktkv5ZifqLT2cl61n6paFZDh6cpbM0f3QWrGfpl4bOgvUs/dLQWbCepV8ampWBpdcntGTZTUHqSgYYGwFiKdgCVm8Q+YYm+GrCtK51n6RjKQf70sf4OJDU+wK6qJmiCEoLGlGM6txNqaIUZ5wplJIeeGqbUarlHUWtp5RTBi0iDW+aaQ5MohhuhLchyutMY2wYSDF+KxEDWng9WXARBLWhWQR+LV7W25nKpN5bqczqaFo1EESxsQWekObhdVFLdWxC09xZmj+aMVg1D1xAFt5CkPXLasvnkYodxrNf/CJe/rcnEChVwRuqQ8Pb78Dl7/xVtC5b6NYKaIlffBi5Iy9h59e/gR2Pbyd+gigVwqivWor1f/R7aL9mLeoXNCCYZbwTe7D9776HLQ8fxDW/9VFc8K7LgSqth9XiFmaEoEt7BhB/+gk8+tG/RGb97XjTR9+DBbV53P+Fz6LziR0GUL2+HWADSnuCyBUTKFX5bYV7sWUFEg8/img6jwzDZQM5lIr6AkqATc+P5vPW4OpP/AXaL1jCvGsZsd4nm/+FLGfJyZsZkhaGhFDQqp0ApVr8KPb+1efxzP/+VyRHgZFcCoOjh/DcX34e2778dWQpvIp60y47gK4Hv4lvfui92P6tH9t76CVPiODLIN71EH700Xfj2b+5B74Rxis0pJNITPSi8/hhJCmIQ96CUjWpps8FqdmE+RtMZzF0sgsjevWXjSdf8iObJ6RL1WxQBRQp8ccPHMPkWI6gi8LPhyOJDILDPRg5dAB9sVH0B/V2AhuOL4Rs0YdioAoZX42t0NdbBW5ZghqKQDujNn2W5pBmDFatwdH3P/XmE1GLzGAvxo5sg7emDdf87ifwxz+6H3d87pOoo5Q68sQz6Dvcg0w2Bhw7jhe+9wj6+jzoeOcf4P13fxt/8K/fx4f/9du49hMfQnNjHPsfvB8vPb4bsWyaDcFj3x+N5AnUQjXSBItWW2lTBb0Ip7dl7SuAHvq1xU5Rr8RQ8rW04e2f/m/40H3/jN+59zu45SPvR66lGStveQc+8M3v4nfv/yF+9S/+DEuXNbI0fqx762/it7/9AH7v/n/FRx54AL/P/P/hvf+C3/rLL6B1dRsK1FIKWtyilw1ZZKcInKX5pFlIVpK2jBFRidQmc6lCCmFKJ31SMZ7MY/H6q7H2ttvRcsG5DES9kvcHnnsOux/bh6XnvwkXvP93UXPpRpSWLAJWLMcF73k/brrjTfDG+rDzvh9iaGRSCzQJTDYMvb3G7GW9+swlfXoVg2DVVb1MqC/u6Vzbuys/WR8l5MI2FJcy7mWLkGuMIubXbiOtKCxejsKSJUBHG9XWAlVrgruqHoGmdqC9DWhrBRZ18D5daxPVGS0jVA+gwhKor2m111l6vWnmYLUKC1NrpTpAYFQvWo1lV9wCb/I4tvzVp/DIn34Gz/9wKxa/9e1462f+GEvXddiGYpMjfQR5A6qa1sG/rIZ6oiqfoM9TdAXasOKqa1Djz2Dwha2YHExSWhJIHu37r1eDM0yL3b/SV5+sZYUEpp9OK/yDvOzXC28ErDSEAgOXqDRI+GuPAk8pbetig8yz7QfARuAtMk7EMfLiDhz+7jew++5/wt5vfAM7v3o31ZTv48DzXfBok11KbetFJFb1LA9naX5p5mAVVlnjsuH1Nilqq7H87R/ApR96N+o6Ijj+8Pfw0J9/EI/9+V9gx3cfRHw8S/B4kGKXnfUTWFE/H6GhQ6DkaHQVAl46QqxuEQK8n0+MIpuisqEXN4VQGjXaMqM6U0RYowla9q0dnGkU5T0B5Pw+pJifFK0uvZkqPPnZZRso1SAIbi2sTgVKiPlStk+BuvQi9Vd9UHjw0Xux5Y/eh0c/+GE8+b7346kP/z7u/fCfYPcPHkM+pp1G9N470/WlbZ8DE/RnaV5pVmqAvZFUyvCpJCvRg/r21bj8g5/E9Z/7a1z32c/gsve8FcnObdh+11dx9NEXkU/6EaHyFykkaZ0naXRVEezV1nVrQwyfdrxIxJHPC7wemlxJeP36NlXBLP9iiaYNz/V6b5GyUxuYqZ3YvgO09LU5hTbBsH2Xynk0j9d9kSVCYy5ICR7I6wuElMOUjgGirsB7zVffjPX/7XO47vOfwhV//hlc/d8/iTd/9g9x8a0XwxtRJHqZOMBMhFwDpTtL80uzrAO9b85DNoWuZ7fiwU/9Cbb88Bm0XXwLNn70Y7jh9/8AN956FapyCRzevguldAkNjc0E2hgmhg4hfpKgjOVw4PFH8fw370LyxZfQvWULErEUvNX1iEaVHeqUxZyNAvg8NKTYOCrGjXYDVK+st9ck3d24qwws3SMWDWNEcMm9PlF5F0sbalgMngyNtzz10QBaN16L9e/7KC7+Q7o/+Tg2/dFHceVHfhvnbV5NsFJUK357yjv1RsdZml+aMViFC1PbCtQJqQf6YiMYeuzbePKLX8KJrXuoWDIqfz06hxOaKkCwyodwdS2a163FmqvPw4t7foRd3/kOPN1HsaqYxsHv3YOvfuwP8ej/+QYBWY0LrrwRi1tbmAiBwi67WBxHpDiEaI5SOZOj/ksdkiD20rALUBXQd0W1bZq6Z+34IjwZpjSSL11CnTjFc8ZHMNsYlB5kzqhS6PPn/rwH1foeVklSWFJXGjCfzadsWyhrE/xRnNo2wMp+luaVZiVZ3T6i9IRCaL5gDdZfcSOi3bvwwhc+ivvueAce+u0/QPe2o7SyF2PxDddgtKUZhbWXYP073oyli0sY/9bn8NCHfhs/+fwXMfbMTmS3PIaRl4ZRaFyJlTe+GQ112r2vinoooVXox/Pf/Ut8/13vwY/e/hv40Vvehfve8gHc94efw9j+I5YfBLUFEZ/IelDFo9RSGy/w6e1Vqgr5akrVCNuRXnQkWHk/U2q09nbkx1/Dj//r7bj3HW/Hg79yOx66/XY88LZ344E/+p94eS/zRHT6CXpvIe4ayVnxOu/k+/QMd2RRhygw6DtJeRoqgZoatJx/IWLjk3hmy1acPNqDE70pTEYX4Tf/+2dwzg0bEKQeGqIh1bh0JTa+4Tr09g/h0Sefwsm+IaQoruKMNROsQra2CgtWd2DJhecgV0hh144XcODFgxgf6kfnyZM4ebwLJ7p6cKizG0O01Ndee5m9mv2THz2J8KJVWH3rZgQX1FD6pSkxpWdm0L33IJ7aug9ta1Zj7U0b4Al5EMjl0bltN/Zs342hyRiO9fXixNFj6O/ux5Fj3TjU1YfhXBbnXXIR2pd2UBJLUFPS21gDjb+pOeSzdCbJuE7seYoznG61ByhdbIM1elV9Xuqmxc7jKI1PUGTRuvfWI01Xe24bSg3SIxW1PnzIJ9JZlHr6kB0do+Armu5rdZ/O4YUXD+ChnTtxx0d/H8tWr0S+vw/p7h7KWOaRUfjKn6/M6KFgM4IrGpjxNApH+5ALLwBW0rE3DzItby7KsHFgeBTjXeOINrXCt2whcp4cg7B/P9ED9A1LJaWaoCEtjddSlFNz0Mck8lVR+Ntb4Gus47mXElUGnMus6cRn6YyT2SZ0s1oboI+sseN1w0MiqgVFD0Fj2qM24ooQ1M5KF2ltiwwfPV2254m+8k0CT4P7XuqPSDKeOIFWSzUgLGDwmreyl6CmPmXwaNO2EiVnBAXqotrLUGZTkX26buv7+p68tr7kfYGSIQKmizIPApmi5R19GlLDX8qF28osRwEqpVT6jXLosW/B6p7MNI212hdIRNM2lDhLZ5gMrNqEfyZEeGesYqkLCh2qbQJAGwYLUvoTeNwiJlaq3XPBRCaJHULsnqjI+3kCMyjJJqtMObGA9PrVqQuUPhcvLwtsPpn+/Ne2mhqL1Rfx3BABSUc2Amt/BJbtv1F2ipv9gn0MThvCaa9BJaV5f81Q6RHLaznPekS/gq3LEhM1QJ+lM00a0RESZg5Wowr0plVaGQiqSyqS7pbFSI+uqfu0hHjixKy7LwToknb05QWvAMvrphoYoPnDTFr0BImBhZckVX0mKr0mUbW/vT6u4CZipTLIR7/lSWnzoBt6nIaSyxbTIuite6kQr1ta7sw8TpAqD07OntUD5okMrCX8X36r+aVFUhdgAAAAAElFTkSuQmCC;" vertex="1" parent="1">
                    <mxGeometry x="34.5" y="510" width="171" height="95" as="geometry"/>
                </mxCell>
                <mxCell id="32" value="DATA&amp;nbsp; SERVICE" style="rounded=1;whiteSpace=wrap;html=1;" vertex="1" parent="1">
                    <mxGeometry x="250" y="460" width="200" height="40" as="geometry"/>
                </mxCell>
                <mxCell id="33" value="" style="shape=image;verticalLabelPosition=bottom;labelBackgroundColor=default;verticalAlign=top;aspect=fixed;imageAspect=0;image=data:image/png,iVBORw0KGgoAAAANSUhEUgAAAHAAAABVCAYAAACRgWDOAAAAAXNSR0IArs4c6QAAAARnQU1BAACxjwv8YQUAAAAJcEhZcwAADsMAAA7DAcdvqGQAACrHSURBVHhe7Z3Xk2XXdd6/e85NncPkGQwykYgMEiQYJCpYkkWxSqJcflDZpSqXq1x+0d/gB1f5zf+AH/xgSy7bdImmKJEmKFAMIEiCAIk0CIPJuWc6d98c/PvWvmemAULENEYAZqpmN/a9J+yw9vpW3OfcQWlI0c1yY5QRUr3SMA4r/ZKydOlmuSFKiTocxFc60U0Ab6QSCljaAh8fNwG8QYrBK3xd6fLRTQBvqJI0MGlfAHdTA2+sEmYTGK2BARyI3gTwBikJvCtmtDi4CeANVAziFQDT0XWRB5qArY45yhBy+c9X0/13Hqe6pc+ofVGGGvBZtHxnuXwlBktjJMM06vFulhD5Ffc+zpJoGNHm9VKuMwCpQQ3EFQC6+hLFkKS2yXSUuDIc2B9wBpM5TMUNXCm+tPWyT0ruc7mNLxjujJoS4yw6FT1p5LH5+rjNVVDjDx+bLHWvBwALRmXxWZTg7QDIIu8pqO6PVgArg+yy+qzEi+n0pM1WT73eQP3+kFqiK4CAVJb7e6gq3+VsoIl6RXmJsWI8DxezMUuc8H0FKl+xoEhMoMroysdTvOLrE8ChgcoFO4NVZhHQcN1XKEFhOR3w30C5evD44qp0bmlTS5s9rbX6anSHanX7YMtNumaMVGLFGael0kDlUk81htkxO6GZibpmZ2raPS3VmTBn4MwMCXPp2a+YzXJQ1aHWRlc+nhL0BC84vm4ALExVKQsZN6ss/+WhGVacVTCPJTVptrghLSy3dWGlAYAtbdBsndpC44ZZmeEALcvpmvTJxVBYizIEwrPUKxlAZpqaGNe+2Zr2TufaO59rdszz9kJrh0Dq2VN/U9Hl00J0E8B3lpidDyTf+uZT62JpCMMAdTCsqMc9g3TovPTGqQ1dWl5XP6uqA4f7Q8BCe93fmoyVRHEZyQceL8YH1DQFwFp/AYQbhqmaDzSed3TLzjHde8uU9s9XNF11D3cwPXEUxaL0cRbTcR2aUIqjj5B6k2LjZSitM1WtgeOR8z0dObuqM2tDbXRzdfFzA2sZAIf1pXXOgbUrR8s8Up+VDgMxo0C7OAaCWG0CNArgD+k7Vu1rvtbRbTtreuDWee2eEOC6gSdIINq8fpwlaBjRfV0BaArsqxKJRITWLABaReteO9HUq8cXtdzguhULhzaE6Rg6IsOR9gWEV3QlLdJn1NGK0/FohkA9OKB8wHgIhLEtDduarPR0YKasBw/O6e49VU2ijYStfLhPMdfHU0z7dQdgMJTq2M9IDtAWByjn1jGZJzZ1GM1baaKNmEyrWzbSKgJNengV6TyVtJSSVxeG0iCmGQxk1Pgj/fBd+mZWduNTrnKf9r2WJrKe9qCBD+yf0n23jWum7tFoGAB+fCVoTku8vgA0/xwFOgDpQdgFwPvxoSUdX2yrOahxH8ahfn2CFLeFaCtMws7alJYWcEUJALd6LK7HylNNGuhr7oPo0D7hWA5QCYWU91vaWWvrwdvn9MgnJjUJCR+v/o1W6Q8fX18AAggHTqQvrkk/OXRWby2VtDoYw0zWuEfkCLGOUq0lSVvpBemFX7I22qQGtNwukTLEVR9zFAvHZ17GcVT6TDzERDqNN5BOQQaYVY9bGTQ0PwaId87rgdtmtIssYqtYfNQlljCi/cMHsBiViXxYnNqA+dO7J8H6OO2rjc87vym98Oaa3jrdUns4RiDCPRLuITWB4MGsNS7FiHGJUuhftKRaMynF8gKc0fEocY/CtcEo8AkhcA7pyHaAJjJvPtzU1NhAn3rkNj26T5qEgw5wB3x7FXnQT+WarYe1N134p4c6pvGHj5nLAH54AuWdjnD+aVJrmCfLmDl5EpsyLvom0t4g2jx0bF1Hz22qhb4NuOY41MbNJnNkNM2nKGZ2UdPIvsffaMhYId9JqzxSgtS1T9Tb56DnHRuOB4DlHR1f87FzTs/XQxM7g4pWWpleP74KbQ2sgOfzrGnMKAVRUWLydPgRlA8NQFgTNbFsVMzc4ttSD8Be6ibNDp9Y18nTq+r2KzDTWkcIGmbQrMppD6kGhbMAzaaT6mNnIVENQBxbqwyMr42Ot1au9UErvmlj8Lp89wwi/Xtc79EuKnO3iapOnV/WoaNLBFRuZypSTRJjYU3nSaA+uvKhAZhcvr0VTI7VFgsFlFARm6kchpZ0qT3UiYWmVptltQEwcsKsSz8LAIV2NmkBFqfwNQFzGZwBQFA5Ttrl2gcIXwOg2BulXfHt++4T/Xzffo84E5vtjCKBN1AX2jpoYXdYUatb1fGLQx270IQ2C1OyCcklJEGNTfCPuHxoADrUsOaY6V4e7pbq/M0BOdNagyhNTOfRhZ5OLzXVJgixH+kGMCk6TFplpicgCu0IE2ggRqAUwMX9uJ5MYnEt7ht4A8rHgPvOK2N8g0rjIScDLg4Gvfi2EFjAemhgF1O62K7qjVNrWmzYGCTWGbMCypBT/tL5R1M+vJmQ4FgUK7Sjt3QmnUzL9N0u15YxSUfOdrTR8wa1wcbvlcowz9VbaQbPTH23hiVQDYiZnDQyARL3fH10TrdRO+4V7eN+6ue0wo+lTLJBdE3guTIW9PbQ0AbW4cTFNv5wXa2RcUgsTF6d0QNQr++jKh8egNYwOFKCGY5lcmrmygrNUHu3Tb5PXGzo7OJQTcxY1wwzhLTr9wCwj7b6OBjpMN99zfQERKpoGI1CI+Pb4HKdmkC6ch5BC4wvghf3tWC4GsAAMyrj9LtUP56i0tla3MUqLKwN9cqRRZ282Awzm0oSyuSzoTE+P5ryIWogQzsc98LI49Rvw00CE5bXwWzaDJ1YRPsukKz3CFyyCkxKzLRJHNonoYHBeBhtsLgV9+IbhgZjfe57BiO+mcHtObBfTOYzjWvNi3Ggyd+pup/vpzET2MxvSn3dgsNfsgQ9dUpjutis6OxKF7c8siduHEdx8JGWDy0P9KiXR2ZtHSSfWIWQXDpOwnf0zLoW1/pa3ByoU5miMajCrNy7LQYv+sJNKqzjniXcHmY09ujbR6E5vpFO+c/+yD40GkRJx1eueWS3tMcyAkOExdodBZNhS+ASzxbDHxssBII2VW3qM3eN6Suf2q09E6N8Nj5sQZI5/TA0w5QnYeGY+T7URN4s8IbzGoAtoW3Hzzd06iKgbXTROMwlPi/8HLN3iDgz/Es2LJtj0TP4xjjB4qCQjxGpiWSzfnQeH1vO+Yo26bToVpxe+eaGd2GiH3MPw2K4cI0IOATHUJgYAM6xIp0yUTIpzsP7qvrTx3bort2jB82joCwJxvUK4OXOPnBF+orelmK+UiwmrbMSA/fKWws6QgK86BSBBL2DdjmCc3Ke/CFgwZBSv841MxEDlxMBopFmhiO6qPjBePfF14JkKlMFCGhgOonbUa4A7zaj76j+TKAZIJvToAe6vI+SzrnD/IQuo07co45x3iCF6PZb+sTOsr768Jwev3uCdTBW5KSmwlR7FAObuhclccblva++X4nxR10LALcnKO4MfXgf/iyhXPA1WxsYTOYVLx5cXO3q2aPS155b1bOHuzq7PqHNbh2tM3DkSwPMJf5wMMQv0r/Un4DJXrr9ShczZQBHwHlozk2wE+jeaNfEx07GAzxXVNlpY+Y003wPk0ieaYHh2z7VZtBg2p8lwSFQAbweKYKd4NBBC+tr0r6FKadFrMudBlzrOkbhNIeulY1NrfT6UMxtwPMtV6kVjKXn5ZoEMdUrR1vvfPCybROaGhsmY19OEuFaaquBSTy1JP300LLevrihRtdpAFpVqoaptJlJzb09xgFL9fQDh6kFGV6TpZLz1IYPayVffjLvLTaDHRpWVDdxy7jnfn4hItgfw4W+ua+lACC8KRB/ISSera/KoEVfhId2Xe+VYh4qBC2lEIQao41xra0uKY6Dshmt6SsPz+v3Ht+jCSsb7LAcx96oC/0TfaPT+DTEvuKt8/TKhvWe2a6qBK2jAb2UbWugJzSR7pr+0kDwA0hrOr7Q1XefP6GXzgy1TtI7GBo4WEmneM7HAFciPdjmZNoBCBqZQndIor33H9swrUn/JiFDEwHYLFVC2lM0CeiMkfI4ay7RKtSQfgMAeuwaWkr1feb22MjBqL9rshj+dPpikeyVvMlQAbA6if04NI4zRpXxDCraCff6FgTY3gbY5UZHTa8FFBi+cIMBsKtbFpdG7N9S05URHh+4bM+EUjy15TuVMKIsRjp2UfrRyxd1bCnXxnCCaxUiT/uLgpHeEXFYD8sKEA2gV08a4W8/xjGwYSoZN7SBvh3ItKw5D0v7lUnrUvhPxfTF7gm527DfYYwu7ekb4NHW3EWIwsQyt824rYBdQQIxAdONnSBSGoRmMEDrhvZ61j7rKO2cRDJxlzW0GHcFi3NyXboEsZvQayGIJ8SulhZqAWL6NN+SzhVn/r6W8oGiUEijpEcwfgj65umuvvPCOZ1cq6hBngT5WBBLoX2NW1FjXzMFD75esikLc4YZ9ltn9hv4JG+6Kb7dzl+WMSrg9vBXNqHBGJNtexKMYtTghOczTYCRY9cAK3aB+HbAlBqZFgDxMIzrR1RmMrAwhdMAm0z3LUcf33NKMYD+KlNZmPplOhN4zZabOjBd0YG5MR3cM62790/pth2Zxj1KzBUDxJyJW6nEiuxbEQohMOnK+xf3f7cJ3R6AW1tiptow9+zKQN/+2Sm9dg73nU3Bz6FqpRZD28YbJBNuBicAXc20CCjsX2Cmn60FqB43vjl3UzMX0IJCapgv2qbk2k8zEmBJnqlonLfhPLbBjsjV/tVzc2zasnjlEOAQvEQDvhJh84PdUg0NJFLJ3Lfnl4CdkzqA8lwDVdFAm9kOkagFwK8glrlWh67Z8Ypm60PdtX9a9946pwPz0t5ZAbqfH3rtpj35Pa+nYrq8ueFXRbh+NcVsuHYA7Xw8CpNeIE34+5cW9PzxTS13KyplNaLAHs4fvwKjYtOaaWKKYCSMN/NZVHoq6M1u8xMJp5+jOzfLzUBa2Kl4u8qmNyvDcJyoAfXTii7MM/jF+BaK3CMAil+dLxPl2jQO8gyt4dtPOEZLNfkO/U2dL4X/BJQSbUqY4TL0W2stgN5c9xPcHma5SjtHo33WnrTXVNLbFoErfjNurJJpfrKkew9O6gsP7dTtM9IUwuGXik3rAKFwCcqthV5PnL1/MfXXBqBLAOhdlUzPvdnV3z5/Ugv4POdOJqgMTWUCkDYEe1nRmBmshekzgZg0yxpgCSXis4kioa8B5ngVMzTmIAitJgLyK/N+XtfqVUXcgOzgXz2yH+swvGO6DKZXmN/GmNBJJC4h8R00spvX1QhfDJg4WLM9tNzVNIxShiqf0+UOJrClHMB6lQny1yH+zu+mWmM9HXNaSDwx6wjTD0C2CX4B2SlLRjQ7mTd1x1yuLz6wR4/dMaM941imMu3czKAltoQQmUtXU6KrP3xMpw8AYGrqAOHkqvQ3Pzqj185KjXyS0TYhHA9hv9bDC+SW+0SiTWXqOwJwRIVnzsgvplnQ/JTNT013HRjTdL0NkDAGKvt9/Go71yaM/Ompjl49vQ48Zrg12FrnkKON+epr/1xV++bHtJc6wxgl/EuzW1IT4C8stfX26eXYulthrF5WT2PAUeu7t/L2zwz0+ft36p69ZQBsaGU4pR+8fEGvnWppsz+JIHhG+ze7ASSKfg5uhrnXZNm2KBlobAEXxoYbOogGPnHnnH7z4X26zSY1qHZ7R87bC2TMtWsD0E35bxlT8w+vXtSPX/L7mjNq9wm7cwchNhMM3MdMOKOOYgATmdY8lkk7wgLGytCgqWxDT+zv6okH79FsTSH91WETJlkn7GvKaFsZIPp6+shAP3p9iREcJTrQQNPyvvZMlfTEPXN68LYxTWar6EEbXKZYnH0glXkcKa90ajp0ZlPPHbqoU+ukKfhsM7GSWYO7umOiqz94dLce3J/jx5u6lM3p//7kpH52rElkPcdSbGU6iXEBHhrnCnAWAgPjOdMqCc4cBfU2tbPe0W88uE+/9/Bu3c4wFSJl/2DDJjq9Jnl1xUC9G0CrxraKQ/8Ta9LLR9a10iA3A5R+1ghA+gDlvMs6avM+JI1wexvTAcAMYUoPE9nEV/rpwzjQ3Lsj12fvm9e+McwOUl8mqGiSUiy0a1poVrREfO6nF0PvQVLi8RAL94hlNXTvvly//8gMZgrNLa0DPloOMCvtCsLV03JL8axxikR9b6Wpxw7U9NuPwMgdBsPJOzqEW2ijrR2YacCrgJQ7QMGPGhb7cr/064DHbiFyW2p6DmnjCWjmA3ctds5Fe0TS3TDXNS236/rBG8v6/htrugQ9HeYyADb7oRTXULYJoJ2wdPxiR5dWM3yScz0YgLmLBUBVpA3WHjPaFQK9qAHXUk1Js5/xzdQGumffpHZNZir31uJnYH4z7cXTAz19aEPPvNXU949s6uenWzqx4hefME/2abGF1tatO6v6zL1o3oEcn7cac6/0JvTiya5+gtZ855ULeub1Zb16MdNKdzzM1Wylq0/eMqFP3TmpGbS/FtQM1bGy2C/zZ8hcbCrRzcg9S6Ydhqen/wimzSXrSw99SfIxwc4Pu15v8MJpFCPRroVFurBR0k9ev6hfsJ5NrkeEbl94jWXbI3ihZ84vEVh0QhrhOgsxaBYmL4hFGzgkuRe7FwnYPrmVk3VrZkher6l6taddOydYCjKet7VECP8Pry/or59f0Y+OVvTM8Ux/d6Snv351Vd97eVFHzjcQGuZkjql6rocOTun2WZjbWcdit3VuM9PTmPavP39W3/zlJf3wdFXfpf83XlzQD08N45UIv+9Zx0Q/sDvX4wfHNFFqJM3yZgD0hwHcYtZi39SCyxqsKz6Lv9F6fc066G+XOKJtBEcEUT0CpMg5iW5PLzb1t8+9oddOrEdQFu/WbMOEvlfZFoC27Wcv9bSAXWoiYJZMB6XD2PHwoky8W2KdDSDVDEmmxpvJaJBzNQOISSsTso5P4Pi4XyLS8xN7+5nNylALRICX8K1dgodes67D5wY6u2RNx8xh4m7ZMab79o1rkuDJAUUXSf/lyQ398EhDJ1vTRI7oZH9GS4M5nViv6hnM14nlPtEzAQrZ/a6JoT79yYMETAgdzDXhkfMhfAbZyyhACYGEtrSDNKqs1fu7oYW+x3E8HI52iSdtTlpc9+jmz0a/psNLZb10sqEG963nxRwftGwPQIRlYbWplQ1sPIywbwgQ+S60Ly3EpictLl4UunwdgqkpOS6hzZk22yTOiKhTism69CDm7a7JNU31zhHFramKLxmgmT38mJnCB0B3SJLLmhkneGAFg8q4TuOXXzq2rFUClR5BjoOSQRcfh4n3k42F9Z6OXmzgE5O25ARc+2bKumM/GXcy8jAeqiO4GBWIDXo5DPeAYP5qTSAUtejrfuZJiDBk2zx3S3WEalwvHFnS0UuY7WSpr6lsC0DPt044t9qwo7Yjt7RZ6lg0xF6uAZyZTR2BmCTWbKKTL8Pkpc2hjp1fJWaEDIKaCmbs7p11femeGX3hVmlfvqIKUVyfqLfvHGoks+NjNe2bzogeMXswpoV2H18Z4mfsb9OjIfvYCuG9d1F7jNuBjrfOLmsNl+douMyU4/jdA/P2jfapthWGIIGCWvszQKBrzBz0xzo8/qhyM+3xuo7ucWxNtrCF7+TbebN9dz8f19HFrp57a0EbjXbMcS3lqgAM00jxIhbXG9popaTYCzadCUAvyNLuRcAEItCSjb/NpRdBb//5WZ+fTnQwmZc2stCaw6toS6lG7pXHPuLDt87qDx+c11eeOKj7OS6RPLVzIl1sbAcmlGtVzRCMIEKJ2VlV59YHag5I44OgLpEuqQOBhYOJePKAnzu/0dMGeWH8uBN6x4liZ6o+No0JPtNvAeMCX1zjephJr5dbYTZZXzKp6fydj7dGCQUgmo4S1aB6k9zjdXvQMKzpmZdOaGXdUe61lV8LYAFcUdoYcwcvXaKqy6aSICVo9THVDEhPDFgw173dZBDjvtsi2dEGDWyQYL+9kBNxlvTKxa5WWOCgTHLOAnfVa/rUQenLj0h/8Ajn404jEBxHbuVyJPpVNDDHnJYBwCY4BUuMAVvigSxtYzstKua671ShFttZXWsqAdgY2lyvcYxJD6CYxUClYnMLvUX1UkY1QBodJ14YUGvjSCPx/xGxcWw++ImG8zZ7xBa0nlob6PQKriFN9IHLVWmgi8FEeNThw4wyIJEuIIZpIYlxkBw1PRIagcVxkB5Aw2RMWmgrTGuiva+f3tRf/uiMvvVmRyfak07DcVJdjZc7unVioC/dOaUvPzCjvfUWEu18knEBwZvOfm3RJnDS7y2iOQ7jTUnJdNmMQ5yjXptWJ82hHwbWPph81Lsx4SfxszaP9oHeE3XhLNZtbQrBGNUwk6P1usZfAJWq36KLwIWaclZmtRAjbI7UbIU65JGvnm3HBsO1lKsG0MULSq/oeWEG0LP7nIV4QRAekshVG81UR6AaOBjqNunXuDANAXAyssb1Mw0ixdeW9X9+elo/P9shJYAJpAxjtJzF1D1+sKYHD04DVE+NzXWSY8ypMfOmOd9TFfsbaLIm8Z0AJNdicm/XOeiarZcZjyS93wZO7xw5n4N2BCpBhgmENAtknHExxCHW6jX+ai2uu0uqnPNtzUrC6ycaBFu2EligDqYcqYu2hxdY/2iuD1quGkCH1jn8KGO+LMUuJrZ4g9nEpoUmM+rfqCfgkiTaTyQzBajWQKpfHHIS3MHcdHGMy+RpL5DE/++fL+mZV5d1dgU/1mM+UouJaiuet81U6Y+2rGF+/VTcuVZermj/jmlNkH6gSsFUbHUAmJ7tMT/1th0T2lkjfBq2VXaU2u+o2Wqp0exAj4MYxvPSYnlObdJxDBfgJsC21tBIa/hI8yLFoJPXbKH1Q2h/C+DcZgj/HIV7O/wsQZc19VrKrwWw+PFk8V0nmJieGlfNAQWC1IVBPZuEso0eTprz3DsztI3kPoIbE4/WxbZURy3AalXqahOZVEtlTbDoWo9lEID0/OoEwQ0WVT98q6lvv7ygxdK4epjHMlJbI3ApMd8qCz+G+dlomC5zuKW5mRk9sndc02rG229+5BP7kmhZG/pnqhu6/0BN8wCY4QfXy3sJaMo6cm5Zm5wbrYYBx+T5gc9wUMW3Jg0u5bV4ImFh87NBP1py+wHfdiOmIZbpTY3c7wmViJ4Ratjr54w+Mh+6rM/ba87s/QrlWqcTccVWgdhu2ZYJdeMqC/Djn3iGhpilNAISLXks1uYs+QzOkc5kapBJHzsqJQDyEwsHHzP1ge65fRbtyRjX/s2MgeG0azLW6mYDqU4zVxzFsejK2AwGta5jSz2dA8CWr+EX57Jl/fbDu/XQ3kxz+ZoyUgS/pDRE2+YqTf3ze6u6Zw/5YTlXOxvTkBxxbVDH/y6GHzatTjlK/VZEtxF2kCt602BIKuOnih3m6vgVkNjOY33hQ+vJTEKvhdfPQ71RYQ00HumBsfmRrE96wy69HtLHAoBhXLeSFIqynbItACFds2NVNBG/Y4CQcptIR5phMiDMpsaUh3lBMi19YVIgOF6fgAElUMm6TU3V+3rsnnl9+Yld+jQR50O7+rpzrKFPTPf1yX0VPXb3Tk0BbKWH38LhdTslbZA6+UWnE6s9vUAKstCEqQjEZLWj22fa+urnbtOX7qrpyYOZHt3T0+duGehfPLFTv//AnHaPEfCwCL82uNAq629eOqfjGzC/DBBmHnXgRJ4ASbk3sAmi5jI9tq+kz+zt6KkDJT21b6DP7h3oyQMV3TKFS0F4bJ9DQAHC/jP8PdU8sBXwPb/kbL4MsDaOVP0PE6XnnkwFUR9UA7f1OMly+drJTf2X71/QS+eRKkxLjvnKuNP3r2oBCbJDkv0AlGVYTwEygZch6REHQnDWW9RdO3r6k8/dqvt3NNVq1rTayKiIQqWs+bFMeyd6mspbmDKcf29c3zwy1F/+/LzODaeZt6s7Kkv6w0f36jc+uUez+bLKBCemo1Wa0nKTfGtjUzsnKpjNvqp5MmNtzORqaVp/d2hFf/XcKW1m0yT80NNd18G5qv7VZ/fr87fYjJKeYCUuNDOt99FcaDBQNe/3sc7NbFLfeX1Z33npVPyW388oXfyIycU88Q7TIPaDMa2Y4Cpg9/2g2yYb8/WFO+v6z//6bu1BqALskQZuPd5aDFT4ZR9b3uDz9jSQzrfumdD+XRMs2gwxOJY0E26NdIJvU2H/N5LIUTARUklrpw89pNCgpudpuSYYeN9EX/fN9/VZmPfk3pLumulqsoxg5ONayvfo0MakfnlyVZv2+oCHsocWeY/zf71wSb9YGdN6NhXvqcx1F3VHdUX37cy0awzWlrpEf04bxnQWIfn2L47r799YZH4DheRj9vyMrt7bUA2TmwTP9mOoucm69s/WdXC2otvnhrptqq2DUy0dnOlrdgJSMr8+4kdEeHjXOE5aaKvk4MW8cLpi7QxrxTkTaO9sDdrciNMt4G2nbAtAa9c0wnMnIM7WIAmJHziHgh77kHh/xQuHwLD1XDd4fnYWESl/PUKMLqkAeoUTxwedauvo6pQ2yzvVBKwO5suvQbSzcW2Ud+h4a0rfPbymv3r+bbR+nYDEQQKj9dqYzqqOLg/19GuL+h/PntE3X1nV66uTWinvU7M8y7wICb6zjbasdqv61ssX9F+fPaevv9rQqUsEVEOCKejznqQZ3CZtaWpCreqcNvN56Jkn8MBfMo6ty3o2p1XqRjbD+FPhi1sOvhz8ICBmxBDhDMDMEwuwAaOm9Mqm1RYKP9lZ196p7DKARTGQ76V9/1jZ5hN5y1SmX16U/tv3DusXJzYAggXyZ6Zbor3fUCOUT27c8pFH9BUsKvlJOfcwvUN84SRA7B6X9s2XdWA20zQpwtRYjUCDaLTdIYjpkkq0dWy5rdMbHaLeOhT7rReiUvrGW9P2w8xfgfW76z38Ul07x2uanq3qqdsndceOGilIrsWNlr73xqWIbE97swCTZnodTDgv9UPcqRyzvGtMO8a8CmwE67VXt63wg+b1fDo21zMHH6zp8HpNRxb9DmqFoIz1Dby36d0iaKJWHNWxZkfXXaLpiu8PNoTr02RvXf/pz5/S79w7Hrnu1RQD9W4T+oEAXOHraz8+q2+9eFYX2qTGaJhfRw8AGblmrfRM8R8aGAB2AbDFeR8tAkDIrjmBJtzu5hXM6JrG0Ez7o4GjPExhF9VoYTLbRHsd8ie/Cm8XZA1M/1idNRzRsFQzv5MAv8XgpQ0qmb60r6M/fXyPPjEPSHlVi926nn7lrL7+s2NayHap12G+8Ukossn33qotnrce+MZG+9tWxxsEBrKF7ywDgqNeUFc7n0AsHR2TRHEtrnPcxYq0M3yeNbLUiXigz3rN8Ao8GO+T0syW9B8B8P5dRNEm+SpK0BPr43gEYP4fKOnS1RSzDGkllahNTOvEwobOLONfMIcGzF7DDtFMDqbQ2pDHPxkCIN72sgDY98X7ICzfgPZYrBnYRis3MHVr/Zo2WLx/K+/2/nN/m2UXa69f77PmG7Gc6pYd6yFg28za97Q2/YpFhwS+rh1EqTvyDc37hwy1SR1vT6nTbsYc/qm3t7qcqzqVsVnzOzlJDx2GIVAIXYbA+R/Tc1Tpe/4xTFqXkznbBed6Fljo4zizCWWsFCekR2/OG3eUO/qjJ+7Qk7eTt9a8MXL1xQhECQAtWNsp0ds2vKXbd5b00D23q5wnZ20WGgw7aNbCol0JWuJztDtiiwLzMyJSM6w/aHCvQWLNfRL1+G2EfxfhTWcW2yWkD3PEtW4XkMPZ2mzYx1r+CEygKX4LgdYPAaA8bADjBvf7OtOu6ZsEOd843NHZwbRWyUH3zlT0Z0Sa//6xkua1BCgbGnQ3IcxUkoPmY/T27zLQIqaLZ5f4er+y7/dXu6y3hXZucr1NwNMnCu+jZR2k1j89a5DIe+Mg9j69ZOgMOXQww/g+npse11OPHtQeAortAfCrZVsaGECFNpGXkYuNTZZ19lJTl9abBADhmWAE0ofY+RmeNdK0u5rpLr5mp240bZa8sRy/YWBlNsH2afH6PAxNe6zWZF/3NY/n8+gZZiR4w9C+7j8fmek0CFPs53Dnl9fJYqoqjc8TzGRa2kDL6hOqz+/X+dWWNpE2j5kix/RtE+ma1sxYpoNzb4d5Gu93u8b80c4m1xditdHe7606uPM40Y46VdokV71Xv3NfXbOATo9of7XlcksOPOu2fKANmBs7VDfXGvi2n5+W/vsP3tTzR1fUrczGv7hUqfjZl7liuNKU1oi0DGp82SxCAovzBk1R3oucLWKQjqLJOxf97n7Fbki8fo8GzY+TV06VNYYWOXXwm2UdLMHxlY4We2g3/eNlY4TGjI9Qn7J1Km9K+9BOIKxAAOdK8XpobTcRD5kJO2v44YjG3YPr4+SETx3I9RdfeVSfPyjVzUcE9t1r+cdKcGC0zJAx26DtABhD0NwE+tCM969yvvXCMkHNER3fqGjd/0AdBFcxjZHzYIocyjtHLATAxeCZCu/SE8CPrrrA8HdQZPhgUVzzQmHTqIGHiGvpIIpbxwNWfJZ3P6xNWY4XBcQaDBySfmQwzf5yWK4Dis0jwQfFv5uw1qfCN/8VMFoQvQ5/e/rQRsYxOC5eq19FdDW4Fpwy4zZLdXVIjxwrPza7ob/43bv0z+7fodmq/Ql9GSfWcBXFlF0jgAkC7/15Xk/rBSLE+u5r6/ras2/qzUV8Qz7FBHb2LDA2gVm4NQFf4Wg0DKAl1i/nMoqzx6IkatKCfGjWpaOijO7RsLh/ZQXpXujEoKkhkacfLNt1mqn+kYkDkDDB3HN6U8I3OSVJJQlHjGf7SNnKnuKfaU7WxGtnbJt8vn3HHX0UIOKPLSSqTynvbuieiZb+3W/eoj/+9K2aJ5c2D2yh/FC5oPv9iim5RgANlwcysbFczpIZ9G/k/t8vlvWNn75NYu7fyI8DiwFMbUxiaFIQXkyZRthKQTpO113S/a1nLkE9gpHOE5Q+8CxxwO1OgDd0hMu3Tb7/He4cbXQy7RjTb337Xx50tOg50igJRI9flGJ6A+ViWxImlCOb0EILbU1C+7jqxL1dmVGlB3hj6/q3X7xV//Izt2l6jOQdzDy8c8ePFMBgP639y4SYM0ZhAYi4H6MsYAl/fLihp186oWffbmAY/Y+1pryqZEmlvas7m10OW0xWMNiFhmkXwixIZG0lLzE5RruCVVG4XNxz9a5QRn7Z68Fm5jabgC42k8MDgJwj19y/I/S41LCevkm5PG/M6eKtOOezHBkk+69RCYHmswDQPHGa5Pdg7p9u6c+f3K0/e2K39uCDu+S5XrVtjx9fRterLNG8IIt+HwxAqoOAZE5dzA2fO+QvaZ2j10609T9fvKSfvnFeq5ukC5lfosdouCnRJbkEk9uEslCLKkGDS0GKPy8DlU6ihBke/aVrCaxUUo9R0yjJnaVgya38akXyxA5AXC1CZc5YkYHawsxRDPOOYp+a0y9+gsYaohEaZEvjf0XfvyaOVzLQrLF+Q/fNl/RvvniH/uTx3dpXR5BJ8AvY04rT95Zpf23xcq4JQDcsapqYBVjiOIq3kLlhBfKlQyD54tvrev61s/rlsTVd6BCZIe0dJD9Ca8DL8YFlg+fN6dA8Ds1I/uL//RDn8RXF1wuzeaUkkLcy3y38fCQ0gxtpiW7gmoCKceCGNx3s266U1K6wAFuLI8nku6zVadyU4tjPAqgDMrrvrHb15Uf266tPHNCDuyvaPYUAMZzv0Yt25tmohMZ7zvcvpuiaAExDWPfShMHiCADs3ZwDjiTLkR1RoP+XAX7h9vmji/rh6+f0KieL7VwtTGssmr6e3UyIEujTncN0/Z3F54nagNgHUYoVpC8++S+Ea1SS5jq8SMGG2426cGBzWFgTTuOG27xzDt/ISdxdnF9acx0c+Ued43lP48NN7Sw39eQn79Dvfvp+PbRX+sSMVB1N5B2ZsFwB3uii58XMFmb7/Yp7/RMAmJjhcnl5QZQXbalESm0m/bo6kdwQ07JG+xMr0isnm5jXZR0+s6Jzy6taaaxHIOF9wnj0RF9rhsdP//cUGP4O8tKM6cqVY/dIFxPjY5Fw12chDjaXnFnwEu30TR2tfnxF518pl8EOGgAQwQyz7MAIuj3SJPy/a9eEHr9jXr/14H7dt6+iHXWR8xlcA5TmtKcoF9z3qHFo2j7CICZN7OauMBfiEnSceT+Q4qjPyYKvRaWBF+oJN9sDbXRa2sARLLdynbvUil/ctvt+db6nDgGG//Ee90yzeISkkS7Jk6VrRSmocS3uuZ8DiPghZsDmoCsl1KmN808+ub91nrS20Xi+FB+je3x1EUZvEIxjbGaqmabruXZN1bV7uh7/a4Idk3nsE6dNDAImcsD4vT3C6VcVHfl6tIIKcywFV1dXTNc1AliUGOo9jlwS87cW3y+u+duAuBbH71XePcavK++1guD9qBSHW5tdVob3Klv6FqVo7ltbawHA1mtXVvVOaLaO4eLz4vhqSrQfDXKNAN4sH0d5LwCvVntvluu03ATwBi83AbzBy00Ab/ByE8AbvNwE8AYvNwG8wctNAG/wchPAG6qMsvjL2zd+KHez3CDFO7ZpA9Iwps26mwDe4EX6/6pl9CTQqa9GAAAAAElFTkSuQmCC;" vertex="1" parent="1">
                    <mxGeometry x="300" y="520" width="112" height="85" as="geometry"/>
                </mxCell>
                <mxCell id="34" value="" style="shape=card;whiteSpace=wrap;html=1;" vertex="1" parent="1">
                    <mxGeometry x="540" y="70" width="220" height="370" as="geometry"/>
                </mxCell>
                <mxCell id="35" value="FRAMEWORK" style="shape=parallelogram;perimeter=parallelogramPerimeter;whiteSpace=wrap;html=1;fixedSize=1;" vertex="1" parent="1">
                    <mxGeometry x="590" y="90" width="120" height="40" as="geometry"/>
                </mxCell>
                <mxCell id="36" value="APP CONFIGURATION" style="rounded=1;whiteSpace=wrap;html=1;" vertex="1" parent="1">
                    <mxGeometry x="570" y="170" width="160" height="70" as="geometry"/>
                </mxCell>
                <mxCell id="37" value="APP EXCEPTION" style="rounded=1;whiteSpace=wrap;html=1;" vertex="1" parent="1">
                    <mxGeometry x="570" y="270" width="160" height="70" as="geometry"/>
                </mxCell>
            </root>
        </mxGraphModel>
    </diagram>
</mxfile>